<svg fill="none" height="92" viewBox="0 0 92 92" width="92" xmlns="http://www.w3.org/2000/svg" xmlns:xlink="http://www.w3.org/1999/xlink"><linearGradient id="a" gradientUnits="userSpaceOnUse" x1="45.78" x2="45.78" y1="0" y2="91.56"><stop offset="0" stop-color="#fb5971"/><stop offset="1" stop-color="#fa253d"/></linearGradient><rect fill="url(#a)" height="91.56" rx="45.78" width="91.56"/><path d="m68.2206 35.6833c0-1.3675-.1152-2.7295-.4415-4.0609-.586-2.4252-1.9675-4.2777-4.0349-5.6383-1.0635-.6949-2.234-1.1216-3.4781-1.3467-.9552-.1738-1.923-.253-2.8921-.2752-.0722-.007-.1514-.0222-.2319-.0292h-22.2584c-.2818.0222-.5637.0361-.8455.05-1.3815.0793-2.7547.2238-4.0571.745-2.4728.977-4.2598 2.685-5.3011 5.1463-.361.8325-.5429 1.715-.672 2.6128-.1083.7241-.1666 1.4551-.1875 2.1861 0 .0584-.0139.1154-.0139.1737v22.6492c.0139.2613.0292.5212.0431.7825.0944 1.5135.2888 3.0116.9261 4.4014 1.201 2.6281 3.2184 4.357 5.9884 5.1894.7734.2391 1.5842.3475 2.3937.4198 1.0275.1014 2.0535.1153 3.081.1153h20.4214c.9692 0 1.9383-.0653 2.9074-.1876 1.526-.196 2.9575-.6449 4.2529-1.4982 1.5551-1.0284 2.7269-2.389 3.4781-4.0901.3471-.7824.5429-1.6135.6873-2.4544.2096-1.2521.2527-2.5196.2527-3.7857-.007-7.0365-.0001-14.0715-.007-21.108zm-11.8894 7.3895v10.5831c0 .7741-.1083 1.5343-.4554 2.2362-.5345 1.0924-1.4023 1.7803-2.5672 2.1138-.6443.1877-1.3093.2891-1.9814.3183-1.7577.0876-3.2837-1.1077-3.5947-2.8449-.2679-1.4328.4193-3.0116 1.923-3.7496.5929-.2891 1.2372-.4628 1.88-.5934.7012-.1515 1.4024-.2891 2.0966-.4489.5137-.1154.8456-.4267.9469-.9562.0292-.1154.0361-.239.0361-.3544 0-3.366 0-6.7321 0-10.0898 0-.1153-.0222-.2321-.05-.3405-.0722-.2821-.2749-.4489-.5637-.435-.2971.0139-.5859.0653-.8747.1237-1.4107.2752-2.82.5573-4.2237.8464l-6.8479 1.3828c-.0291.007-.0652.0223-.0944.0223-.5137.1445-.6942.3766-.7164.9116-.007.0793 0 .1599 0 .2391-.007 4.8211 0 9.6423-.007 14.462 0 .7825-.0874 1.5496-.3971 2.2723-.5137 1.1869-1.4245 1.9332-2.6533 2.2876-.6512.1876-1.3163.2974-1.9966.3182-1.7717.0654-3.2476-1.1146-3.5503-2.8587-.261-1.5052.4263-3.127 2.1327-3.8511.665-.2752 1.3523-.4267 2.0535-.5712.5276-.1084 1.0636-.2168 1.5912-.3252.7081-.1515 1.0774-.6004 1.1135-1.3245v-.2752c0-5.4868 0-10.9736 0-16.4605 0-.2321.0292-.4628.0792-.6879.1305-.5281.5067-.8325 1.0121-.9562.4707-.1237.9553-.2098 1.4315-.3113 1.3593-.2752 2.7117-.5504 4.071-.8186l4.2015-.8547c1.244-.246 2.4798-.4989 3.7238-.7449.4054-.0792.8178-.1668 1.2288-.196.5706-.05.9691.3113 1.0275.8909.0138.1376.0222.2752.0222.4127v10.6193z" fill="#fff"/></svg>