<svg fill="none" stroke-width="20" viewBox="0 0 512 512" xmlns="http://www.w3.org/2000/svg"><rect fill="#231f20" height="512" rx="15%" width="512"/><path d="m78 241h64m-64 26h64" stroke="#f1796e"/><path d="m78 293h64m-64 26h64m-64 26h64" stroke="#ec2529"/><path d="m148 293h64m-64 26h64m-64 26h64" stroke="#f6dd05"/><path d="m218 241h64m-64 26h64m-64-52h64m-64-26h64" stroke="#e78dcc"/><path d="m218 293h64m-64 26h64m-64 26h64" stroke="#d81996"/><path d="m288 241h64m-64 26h64" stroke="#d6e465"/><path d="m288 293h64m-64 26h64m-64 26h64" stroke="#adda1a"/><path d="m358 241h64m-64 26h64m-64-52h64m-64-26h64m-64-26h64" stroke="#b0d8e6"/><path d="m358 293h64m-64 26h64m-64 26h64" stroke="#56bbe9"/></svg>