<svg width="48" height="48" viewBox="0 0 48 48" fill="none" xmlns="http://www.w3.org/2000/svg">
<path d="M24 47.9062C37.0547 47.9062 47.9063 37.0547 47.9063 24C47.9063 10.9219 37.0312 0.09375 23.9765 0.09375C10.8983 0.09375 0.09375 10.9219 0.09375 24C0.09375 37.0547 10.9219 47.9062 24 47.9062ZM23.9765 25.2422C23.578 25.2422 23.1327 25.1015 22.664 24.6327L12.328 14.2969C12.6093 14.0625 13.3125 13.8281 14.2969 13.8281H33.6328C34.6406 13.8281 35.3202 14.0625 35.6014 14.2969L25.2655 24.6327C24.8202 25.078 24.3749 25.2422 23.9765 25.2422ZM19.3358 24L11.2031 32.1328C11.0391 31.8516 10.9688 31.2656 10.9688 30.4453V17.4608C10.9688 16.6405 11.039 16.0781 11.1796 15.8438L19.3358 24ZM28.5234 24L36.703 15.8438C36.8202 16.0781 36.8905 16.6405 36.8905 17.4608V30.4453C36.8905 31.2656 36.8203 31.8516 36.6562 32.1328L28.5234 24ZM23.953 27.0938C24.7968 27.0938 25.453 26.789 26.3671 25.9452L27.1171 25.2422L35.5312 33.6562C35.2499 33.914 34.5936 34.078 33.6093 34.078H14.2969C13.3125 34.078 12.6563 33.914 12.375 33.6562L20.789 25.2422L21.539 25.9452C22.453 26.789 23.1093 27.0938 23.953 27.0938Z" fill="#E52226"/>
</svg>
