<svg width="62" height="62" viewBox="0 0 62 62" fill="none" xmlns="http://www.w3.org/2000/svg">
<path d="M62 31C62 48.1208 48.1208 62 31 62C13.8792 62 0 48.1208 0 31C0 13.8792 13.8792 0 31 0C48.1208 0 62 13.8792 62 31Z" fill="#8A4F9E"/>
<path d="M30.9981 13.0527C21.0872 13.0527 13.0508 21.0892 13.0508 31.0001C13.0508 40.911 21.0872 48.9475 30.9981 48.9475C40.9091 48.9475 48.9455 40.911 48.9455 31.0001C48.9455 21.0892 40.9091 13.0527 30.9981 13.0527ZM15.2643 32.3561H20.2696C20.3494 34.1708 20.6026 35.9735 21.0274 37.7403H16.72C15.9164 36.0453 15.4238 34.2227 15.2643 32.3561ZM32.3542 21.5877V15.4258C34.2765 16.1556 35.8559 17.5795 36.7812 19.4141C37.19 20.1061 37.5509 20.8259 37.858 21.5678L32.3542 21.5877ZM38.7753 24.2798C39.238 26.0406 39.5132 27.8454 39.5929 29.664H32.3542V24.2798H38.7753ZM29.6421 15.4258V21.5877H24.1383C24.4454 20.8459 24.8063 20.126 25.2151 19.434C26.1364 17.5914 27.7178 16.1636 29.6421 15.4258ZM29.6421 24.2798V29.664H22.4233C22.5031 27.8454 22.7783 26.0406 23.2409 24.2798H29.6421ZM20.2696 29.6441H15.2643C15.4238 27.7776 15.9164 25.9549 16.72 24.2599H21.0274C20.6026 26.0267 20.3494 27.8294 20.2696 29.6441ZM22.4233 32.3561H29.6421V37.7403H23.2409C22.7783 35.9795 22.5031 34.1748 22.4233 32.3561ZM29.6621 40.3327V46.4947C27.7397 45.7648 26.1603 44.341 25.2351 42.5064C24.8262 41.8144 24.4653 41.0945 24.1582 40.3527L29.6621 40.3327ZM32.3542 46.4947V40.4324H37.858C37.5509 41.1743 37.19 41.8942 36.7812 42.5861C35.8559 44.4207 34.2765 45.8446 32.3542 46.5744V46.4947ZM32.3542 37.6406V32.2564H39.573C39.4932 34.0751 39.218 35.8798 38.7554 37.6406H32.3542ZM41.7466 32.2564H46.7519C46.5924 34.1229 46.0999 35.9456 45.2962 37.6406H40.9689C41.3877 35.9057 41.6409 34.1369 41.7267 32.3561L41.7466 32.2564ZM41.7466 29.5643C41.6549 27.7815 41.3957 26.0147 40.9689 24.2798H45.2763C46.0799 25.9748 46.5725 27.7975 46.732 29.664L41.7466 29.5643ZM43.7408 21.5877H40.1712C39.5251 19.773 38.5899 18.078 37.3994 16.5624C39.8801 17.6792 42.0358 19.4061 43.661 21.5877H43.7408ZM24.5969 16.5624C23.4064 18.078 22.4712 19.773 21.8251 21.5877H18.3353C19.9605 19.4061 22.1162 17.6792 24.5969 16.5624ZM18.3153 40.4923H21.8251C22.4712 42.3069 23.4064 44.002 24.5969 45.5175C22.1082 44.3868 19.9505 42.636 18.3353 40.4324L18.3153 40.4923ZM37.3794 45.5175C38.5699 44.002 39.5052 42.3069 40.1513 40.4923H43.661C42.0258 42.646 39.8721 44.347 37.3994 45.4378L37.3794 45.5175Z" fill="#D4B3E3"/>
</svg>
