<svg height="48pt" viewBox="0 0 48 48" width="48pt" xmlns="http://www.w3.org/2000/svg" xmlns:xlink="http://www.w3.org/1999/xlink"><linearGradient id="a" gradientTransform="matrix(48 0 0 46.985 0 .508)" gradientUnits="userSpaceOnUse" x1=".121094" x2=".971262" y1=".74343" y2=".034929"><stop offset="0" stop-color="#d300dc"/><stop offset="1" stop-color="#8700ff"/></linearGradient><path d="m25.639 43.22c-1.197.1-2.09 1.136-1.992 2.312.099 1.177 1.155 2.052 2.359 1.953 6.028-.492 11.654-3.205 15.737-7.595 4.073-4.389 6.311-10.131 6.256-16.066-.058-6.235-2.644-12.202-7.179-16.579-4.546-4.366-10.677-6.793-17.037-6.736-6.36.056-12.446 2.591-16.91 7.037-4.454 4.457-6.93 10.469-6.872 16.703.011 1.181.997 2.131 2.201 2.12 1.205-.011 2.173-.978 2.162-2.158-.047-5.102 1.981-10.018 5.624-13.665 3.654-3.637 8.631-5.713 13.834-5.76 5.204-.046 10.219 1.942 13.939 5.513 3.71 3.582 5.827 8.462 5.875 13.564.044 4.855-1.778 9.556-5.116 13.147s-7.943 5.803-12.881 6.21zm-18.134-10.078c-.559-1.04-1.856-1.43-2.896-.872-1.04.558-1.43 1.856-.872 2.896 2.382 4.427 6.126 7.987 10.669 10.139 1.068.51 2.345.057 2.852-1.01.507-1.067.052-2.347-1.015-2.857-3.727-1.763-6.78-4.666-8.738-8.296zm16.495-15.642 4 4-4 4-4-4zm8 0 4 4-4 4-4-4zm-16 0 4 4-4 4-4-4zm8 8 4 4-4 4-4-4z" fill="url(#a)" fill-rule="evenodd"/></svg>