<svg width="426" height="426" viewBox="0 0 426 426" fill="none" xmlns="http://www.w3.org/2000/svg">
<rect width="426" height="426" rx="213" fill="white"/>
<path d="M274.72 172.421C293.398 185.766 316.279 193.618 340.992 193.618V146.087C336.315 146.088 331.65 145.6 327.074 144.631V182.045C302.363 182.045 279.485 174.193 260.802 160.849V257.846C260.802 306.368 221.447 345.701 172.902 345.701C154.789 345.701 137.954 340.228 123.969 330.841C139.931 347.153 162.19 357.273 186.817 357.273C235.364 357.273 274.722 317.94 274.722 269.416V172.421H274.72ZM291.889 124.468C282.343 114.045 276.076 100.575 274.72 85.6838V79.5703H261.531C264.851 98.4975 276.174 114.668 291.889 124.468ZM154.673 293.606C149.34 286.617 146.458 278.068 146.471 269.277C146.471 247.084 164.472 229.09 186.68 229.09C190.819 229.089 194.933 229.723 198.877 230.974V182.381C194.268 181.749 189.616 181.481 184.965 181.579V219.402C181.018 218.151 176.902 217.516 172.762 217.52C150.554 217.52 132.554 235.512 132.554 257.707C132.554 273.401 141.552 286.988 154.673 293.606Z" fill="#FF004F"/>
<path d="M260.804 160.848C279.487 174.192 302.365 182.044 327.076 182.044V144.63C313.283 141.694 301.072 134.489 291.891 124.468C276.175 114.667 264.852 98.4965 261.533 79.5703H226.889V269.414C226.811 291.545 208.84 309.466 186.68 309.466C173.621 309.466 162.019 303.244 154.672 293.606C141.551 286.988 132.554 273.4 132.554 257.708C132.554 235.515 150.554 217.521 172.762 217.521C177.017 217.521 181.118 218.183 184.965 219.403V181.58C137.274 182.565 98.918 221.514 98.918 269.415C98.918 293.326 108.469 315.004 123.971 330.842C137.957 340.228 154.792 345.702 172.905 345.702C221.451 345.702 260.805 306.368 260.805 257.846L260.804 160.848Z" fill="black"/>
<path d="M327.075 144.631V134.515C314.637 134.533 302.442 131.052 291.889 124.468C301.231 134.69 313.533 141.739 327.075 144.631ZM261.531 79.5707C261.215 77.7623 260.971 75.9417 260.803 74.1135V68H212.969V257.845C212.893 279.974 194.923 297.895 172.761 297.895C166.254 297.895 160.111 296.351 154.671 293.608C162.018 303.245 173.62 309.465 186.678 309.465C208.837 309.465 226.81 291.547 226.888 269.415V79.5707H261.531ZM184.966 181.581V170.811C180.969 170.265 176.939 169.991 172.905 169.993C124.355 169.993 85 209.327 85 257.845C85 288.264 100.467 315.072 123.971 330.841C108.469 315.003 98.9176 293.325 98.9176 269.414C98.9176 221.514 137.272 182.566 184.966 181.581Z" fill="#00F2EA"/>
</svg>
